<svg xmlns="http://www.w3.org/2000/svg" width="20" height="18" viewBox="0 0 20 18" fill="none">
  <path d="M 16 12 L 14 12 L 14 14 L 16 14 M 16 8 L 14 8 L 14 10 L 16 10 M 18 16 L 10 16 L 10 14 L 12 14 L 12 12 L 10 12 L 10 10 L 12 10 L 12 8 L 10 8 L 10 6 L 18 6 M 8 4 L 6 4 L 6 2 L 8 2 M 8 8 L 6 8 L 6 6 L 8 6 M 8 12 L 6 12 L 6 10 L 8 10 M 8 16 L 6 16 L 6 14 L 8 14 M 4 4 L 2 4 L 2 2 L 4 2 M 4 8 L 2 8 L 2 6 L 4 6 M 4 12 L 2 12 L 2 10 L 4 10 M 4 16 L 2 16 L 2 14 L 4 14 M 10 4 L 10 0 L 0 0 L 0 18 L 20 18 L 20 4 L 10 4 Z" fill="currentColor" fill-rule="nonzero"></path>
</svg>