<svg xmlns="http://www.w3.org/2000/svg" width="26.224" height="25.189" viewBox="0 0 26.224 25.189" fill="none">
  <path d="M 13.113 0 C 5.868 -0.003 0 5.784 0 12.927 C 0 18.575 3.671 23.376 8.783 25.14 C 9.472 25.31 9.366 24.828 9.366 24.498 L 9.366 22.258 C 5.391 22.717 5.229 20.122 4.963 19.688 C 4.424 18.78 3.149 18.549 3.53 18.116 C 4.436 17.656 5.358 18.231 6.428 19.789 C 7.201 20.919 8.71 20.729 9.475 20.541 C 9.642 19.861 9.999 19.254 10.491 18.783 C 6.372 18.055 4.655 15.575 4.655 12.626 C 4.655 11.195 5.133 9.88 6.07 8.819 C 5.473 7.07 6.126 5.573 6.214 5.351 C 7.916 5.2 9.686 6.553 9.823 6.66 C 10.79 6.403 11.895 6.267 13.131 6.267 C 14.373 6.267 15.48 6.409 16.456 6.669 C 16.787 6.42 18.428 5.258 20.01 5.4 C 20.095 5.622 20.733 7.085 20.171 8.811 C 21.12 9.874 21.604 11.201 21.604 12.635 C 21.604 15.589 19.875 18.072 15.744 18.789 C 16.098 19.132 16.379 19.542 16.571 19.993 C 16.762 20.445 16.861 20.93 16.86 21.42 L 16.86 24.671 C 16.884 24.932 16.86 25.189 17.3 25.189 C 22.488 23.463 26.224 18.627 26.224 12.93 C 26.224 5.784 20.353 0 13.113 0 Z" fill="currentColor" fill-rule="nonzero"></path>
</svg>