<svg xmlns="http://www.w3.org/2000/svg" width="28.800" height="28.800" viewBox="0 0 28.800 28.800" fill="none">
  <path d="M 14.4 0 C 6.447 0 0 6.447 0 14.4 C 0 22.353 6.447 28.8 14.4 28.8 C 22.353 28.8 28.8 22.353 28.8 14.4 C 28.8 6.447 22.353 0 14.4 0 Z M 10.875 20.368 L 7.959 20.368 L 7.959 10.984 L 10.875 10.984 L 10.875 20.368 Z M 9.399 9.832 C 8.478 9.832 7.883 9.18 7.883 8.373 C 7.883 7.549 8.496 6.917 9.436 6.917 C 10.377 6.917 10.953 7.549 10.971 8.373 C 10.971 9.18 10.377 9.832 9.399 9.832 Z M 21.525 20.368 L 18.609 20.368 L 18.609 15.168 C 18.609 13.958 18.186 13.135 17.132 13.135 C 16.326 13.135 15.848 13.692 15.636 14.228 C 15.558 14.418 15.538 14.688 15.538 14.957 L 15.538 20.367 L 12.621 20.367 L 12.621 13.977 C 12.621 12.806 12.583 11.826 12.545 10.983 L 15.078 10.983 L 15.212 12.286 L 15.27 12.286 C 15.654 11.674 16.595 10.771 18.168 10.771 C 20.087 10.771 21.525 12.057 21.525 14.82 L 21.525 20.368 L 21.525 20.368 Z" fill="currentColor" fill-rule="nonzero"></path>
</svg>